<svg width="83" height="20" viewBox="0 0 83 20" fill="none" xmlns="http://www.w3.org/2000/svg">
<g opacity="0.3" clip-path="url(#clip0_216_174)">
<path fill-rule="evenodd" clip-rule="evenodd" d="M0.231413 14.7486L3.16552 12.5009C4.72383 14.5351 6.37861 15.4725 8.2225 15.4724C10.0562 15.4723 11.6654 14.5455 13.1536 12.5271L16.1284 14.7207C13.9827 17.6307 11.3129 19.1682 8.22275 19.1684C5.14277 19.1686 2.44812 17.6423 0.231413 14.7486Z" fill="white"/>
<path fill-rule="evenodd" clip-rule="evenodd" d="M8.21238 4.98006L2.99019 9.48056L0.577316 6.68075L8.22243 0.0921534L15.809 6.68486L13.3846 9.47473L8.21238 4.98006Z" fill="white"/>
<path d="M36.1571 3.88946L33.2003 3.88966L33.2011 16.2099L36.158 16.2097L36.1571 3.88946Z" fill="white"/>
<path fill-rule="evenodd" clip-rule="evenodd" d="M27.2253 16.2646C25.4823 16.2648 24.0297 15.7 22.8514 14.5703C21.6731 13.4245 21.092 11.9558 21.0919 10.1643C21.0918 8.35667 21.6888 6.87179 22.8669 5.70968C24.0612 4.5314 25.5137 3.95029 27.2406 3.95017C29.371 3.95003 31.2595 4.86984 32.3569 6.30621L30.4365 8.32378C29.5164 7.33932 28.5159 6.83907 27.4345 6.83914C26.5146 6.83921 25.756 7.14589 25.1266 7.77539C24.5134 8.40488 24.2068 9.19574 24.2068 10.148C24.2069 11.0679 24.5136 11.8426 25.1269 12.472C25.7564 13.0853 26.515 13.3918 27.4188 13.3918C28.597 13.3917 29.6299 12.8752 30.4851 11.8583L32.4867 13.7788C31.9381 14.5051 31.1955 15.1023 30.2755 15.5704C29.3559 16.0386 28.339 16.2646 27.2253 16.2646Z" fill="white"/>
<path fill-rule="evenodd" clip-rule="evenodd" d="M40.5922 4.87475C40.5923 5.75933 39.8755 6.47646 38.9909 6.47651C38.1062 6.47657 37.3891 5.75955 37.389 4.87497C37.389 3.99042 38.106 3.2733 38.9907 3.27324C39.8753 3.27318 40.5922 3.9902 40.5922 4.87475ZM40.4692 7.2156L37.5124 7.2158L37.513 16.2096L40.4698 16.2094L40.4692 7.2156Z" fill="white"/>
<path fill-rule="evenodd" clip-rule="evenodd" d="M46.1854 16.2795C44.7814 16.2796 43.6515 15.8439 42.7639 14.9724C41.8922 14.1009 41.4562 12.9873 41.4561 11.6155C41.456 10.2436 41.8919 9.12994 42.7794 8.25837C43.6671 7.38678 44.8129 6.95093 46.2332 6.95084C48.0894 6.95071 49.7194 7.8544 50.478 9.54902L48.2024 10.7435C47.7505 9.98497 47.1212 9.59765 46.298 9.5977C45.7009 9.59774 45.2166 9.79146 44.8294 10.1788C44.4581 10.5662 44.2645 11.0504 44.2645 11.6153C44.2646 12.7935 45.12 13.6649 46.2661 13.6649C47.089 13.6648 47.8475 13.2128 48.1704 12.5188L50.4461 13.8744C49.6714 15.3593 48.0738 16.2794 46.1854 16.2795Z" fill="white"/>
<path fill-rule="evenodd" clip-rule="evenodd" d="M54.1449 3.88825L51.1881 3.88845L51.1889 16.2087L54.1457 16.2085L54.1455 13.0721L54.4919 12.749L57.195 16.2083L60.6347 16.208L56.4816 10.8932L60.4263 7.21427L56.8132 7.21451L54.1453 9.70292L54.1449 3.88825Z" fill="white"/>
<path fill-rule="evenodd" clip-rule="evenodd" d="M61.1677 11.5524L61.1672 3.88778L64.2475 3.88757L64.248 11.3806C64.2481 12.7202 65.0287 13.3657 66.1577 13.3656C67.2702 13.3656 68.0672 12.6877 68.0671 11.3804L68.0666 3.88732L71.1466 3.88711L71.1471 11.5518C71.1474 15.0702 68.6773 16.3938 66.1579 16.394C63.6547 16.3941 61.168 15.0709 61.1677 11.5524Z" fill="white"/>
<path fill-rule="evenodd" clip-rule="evenodd" d="M77.8005 16.4533C80.182 16.4531 82.1126 14.357 82.1124 11.7713C82.1122 9.18568 80.1813 7.08975 77.7999 7.08991C76.8292 7.08997 75.9335 7.43829 75.2127 8.02602L75.2127 7.2133L72.379 7.21349L72.3799 19.9033L75.2135 19.9032L75.2132 15.5175C75.9341 16.1052 76.8298 16.4534 77.8005 16.4533ZM75.213 11.7766L75.213 11.7669C75.2155 10.6124 76.1244 9.67727 77.2456 9.67719C78.3685 9.67712 79.2787 10.6148 79.2788 11.7715C79.2788 12.9282 78.3688 13.866 77.2459 13.8661C76.1247 13.8661 75.2157 12.9311 75.213 11.7766Z" fill="white"/>
</g>
<defs>
<clipPath id="clip0_216_174">
<rect width="82.3188" height="20" fill="white"/>
</clipPath>
</defs>
</svg>
