<svg width="88" height="14" viewBox="0 0 88 14" fill="none" xmlns="http://www.w3.org/2000/svg">
<g opacity="0.3">
<path d="M6.1296 3.83049L7.52264 3.8304C8.39329 3.83034 9.29877 4.00441 9.29884 5.01436C9.2989 5.88501 8.74173 6.51192 7.10491 6.51203L5.57256 6.51213L6.1296 3.83049ZM0.000890672 13.6867L4.0407 13.6864L4.87626 9.68134L7.62751 9.68116C11.1101 9.68092 13.3736 7.38226 13.3735 4.70066C13.3733 1.77528 11.806 0.417169 9.36819 0.417332L2.78608 0.417774L0.000890672 13.6867Z" fill="white"/>
<path d="M18.3539 4.97893L18.8417 8.94906L16.2994 8.94923L18.3539 4.97893ZM9.61313 13.686L13.7923 13.6857L14.8021 11.8051L19.1205 11.8048L19.3296 13.6854L23.3346 13.6851L21.3138 0.416535L17.274 0.416806L9.61313 13.686Z" fill="white"/>
<path d="M25.0407 8.80933L22.1844 0.416466L26.2939 0.41619L27.548 5.36139L30.7865 0.415888L35.5924 0.415566L29.1154 8.77423L28.1058 13.6848L24.0311 13.685L25.0407 8.80933Z" fill="white"/>
<path d="M45.344 8.63377C45.1003 9.992 44.0558 13.9971 38.5185 13.9974C34.6528 13.9977 32.8069 11.4903 32.8066 7.93809C32.8063 3.6545 35.4877 0.067241 40.0151 0.0669371C42.9753 0.0667383 45.6221 1.35512 45.6921 5.32528L41.8264 5.32554C41.8611 4.0718 41.269 3.37532 40.0153 3.3754C37.7516 3.37556 36.916 5.98756 36.9161 7.86816C36.9162 8.98259 37.1949 10.6542 39.0755 10.6541C40.364 10.654 41.0953 9.78331 41.339 8.59921L45.344 8.63377Z" fill="white"/>
<path d="M47.7116 0.414755L51.8211 0.414479L50.8463 5.01157L54.5727 5.01132L55.5475 0.414229L59.6569 0.413953L56.8718 13.6828L52.7971 13.6831L53.8764 8.42431L50.15 8.42456L49.0359 13.6834L44.9613 13.6836L47.7116 0.414755Z" fill="white"/>
<path d="M60.7362 0.413883L71.7063 0.413147L71.01 3.82614L64.1145 3.8266L63.7664 5.46344L70.1743 5.46301L69.5128 8.63222L63.1049 8.63265L62.7567 10.2695L69.7916 10.269L69.0953 13.682L57.951 13.6828L60.7362 0.413883Z" fill="white"/>
<path d="M74.5282 6.64679L71.4631 0.413143L75.9208 0.412844L77.2096 3.86053L79.8561 0.41258L84.6969 0.412255L79.16 6.64647L82.3993 13.6811L77.8023 13.6814L76.3393 9.98996L73.2401 13.6817L68.2251 13.6821L74.5282 6.64679Z" fill="white"/>
<path d="M85.2188 1.00426C85.2187 0.516694 85.567 0.133585 86.0545 0.133552C86.5073 0.133522 86.8904 0.516582 86.8904 1.00415C86.8904 1.49171 86.5422 1.87482 86.0546 1.87485C85.6019 1.87488 85.2188 1.49182 85.2188 1.00426ZM85.0446 1.00427C85.0447 1.59631 85.4974 2.01419 86.0546 2.01415C86.6119 2.01412 87.0646 1.59618 87.0645 1.00413C87.0645 0.446918 86.6117 -0.0057891 86.0545 -0.00575169C85.4973 -0.00571429 85.0446 0.447054 85.0446 1.00427ZM85.6715 1.59627L85.8457 1.59626L85.8456 1.10869L86.0198 1.10868L86.3332 1.63105L86.5422 1.63104L86.1939 1.10867C86.368 1.10866 86.5073 1.00417 86.5073 0.795215C86.5073 0.551433 86.368 0.446965 86.0894 0.446984L85.6715 0.447012L85.6715 1.59627ZM85.8456 0.586304L86.0894 0.586287C86.2287 0.586278 86.3332 0.621097 86.3332 0.760401C86.3332 0.934531 86.1939 0.969366 86.0197 0.969378L85.8456 0.96939L85.8456 0.586304Z" fill="white"/>
</g>
</svg>
