<svg width="61" height="25" viewBox="0 0 61 25" fill="none" xmlns="http://www.w3.org/2000/svg">
<g opacity="0.3">
<path fill-rule="evenodd" clip-rule="evenodd" d="M60.081 12.9132C60.0808 8.64084 58.0111 5.26982 54.0558 5.27009C50.0839 5.27035 47.6809 8.64168 47.6812 12.8807C47.6815 17.904 50.5188 20.4406 54.5909 20.4403C56.5769 20.4401 58.0788 19.9894 59.2136 19.3552L59.2134 16.0174C58.0786 16.5849 56.7769 16.9355 55.1247 16.9356C53.5059 16.9357 52.0706 16.3684 51.8869 14.3991L60.0478 14.3985C60.0477 14.1816 60.0811 13.3137 60.081 12.9132ZM51.8366 11.3283C51.8365 9.44247 52.988 8.65801 54.0394 8.65794C55.0574 8.65787 56.1422 9.44218 56.1423 11.328L51.8366 11.3283Z" fill="white"/>
<path fill-rule="evenodd" clip-rule="evenodd" d="M41.2385 5.27092C39.603 5.27103 38.5517 6.03879 37.9676 6.57288L37.7506 5.53818L34.079 5.53842L34.0803 24.9977L38.2525 24.1129L38.2688 19.3899C38.8697 19.8238 39.7542 20.4412 41.2229 20.4411C44.2102 20.4409 46.9303 18.0376 46.9299 12.7472C46.9129 7.90739 44.1591 5.27072 41.2385 5.27092ZM40.238 16.7697C39.2533 16.7697 38.6692 16.4193 38.2686 15.9854L38.2515 9.79382C38.6854 9.30981 39.2862 8.97599 40.2374 8.97593C41.7561 8.97583 42.8076 10.678 42.8078 12.8643C42.8079 15.1006 41.7733 16.7695 40.238 16.7697Z" fill="white"/>
<path fill-rule="evenodd" clip-rule="evenodd" d="M28.3379 4.28716L32.5268 3.38568L32.5266 -0.00217327L28.3377 0.88262L28.3379 4.28716Z" fill="white"/>
<path d="M32.5271 5.55525L28.3381 5.55553L28.3391 20.1583L32.528 20.1581L32.5271 5.55525Z" fill="white"/>
<path fill-rule="evenodd" clip-rule="evenodd" d="M23.849 6.79076L23.5819 5.5558L19.9771 5.55604L19.978 20.1588L24.1503 20.1586L24.1496 10.262C25.1342 8.97692 26.8031 9.21046 27.3204 9.394L27.3202 5.55555C26.7861 5.35532 24.8335 4.98829 23.849 6.79076Z" fill="white"/>
<path fill-rule="evenodd" clip-rule="evenodd" d="M15.5042 1.93486L11.4322 2.80296L11.4164 16.1708C11.4165 18.6407 13.2691 20.4597 15.7391 20.4595C17.1076 20.4595 18.1089 20.2091 18.6596 19.9086L18.6594 16.5208C18.1253 16.7378 15.4885 17.5056 15.4884 15.0357L15.488 9.1111L18.6589 9.11088L18.6586 5.55614L15.4877 5.55636L15.5042 1.93486Z" fill="white"/>
<path fill-rule="evenodd" clip-rule="evenodd" d="M4.22309 9.7961C4.22304 9.14523 4.75707 8.89487 5.64159 8.89481C6.90994 8.89472 8.5121 9.27846 9.78051 9.96262L9.78024 6.04072C8.39503 5.49008 7.02652 5.27322 5.64134 5.27331C2.25349 5.27354 0.000607029 7.04271 0.000805314 9.99665C0.00111451 14.6028 6.34285 13.8681 6.34299 15.854C6.34304 16.6217 5.6755 16.8721 4.74092 16.8722C3.35574 16.8723 1.58668 16.305 0.184755 15.5374L0.185022 19.5093C1.73714 20.1768 3.30591 20.4604 4.74116 20.4603C8.21246 20.4601 10.5989 18.7409 10.5987 15.7536C10.5816 10.7803 4.22321 11.6653 4.22309 9.7961Z" fill="white"/>
</g>
</svg>
